<?xml version="1.0"?>
<svg viewBox="0 0 800 256" xmlns="http://www.w3.org/2000/svg">
  <rect fill="none" height="256" width="800"/>

  <path d="M216,216V115.5a8.3,8.3,0,0,0-2.6-5.9l-80-72.7a8,8,0,0,0-10.8,0l-80,72.7a8.3,8.3,0,0,0-2.6,5.9V216" 
        fill="none" stroke="#fff" stroke-linecap="round" stroke-linejoin="round" stroke-width="16"/>
  <line x1="16" y1="216" x2="240" y2="216" 
        fill="none" stroke="#fff" stroke-linecap="round" stroke-linejoin="round" stroke-width="16"/>
  <path d="M152,216V160a8,8,0,0,0-8-8H112a8,8,0,0,0-8,8v56" 
        fill="none" stroke="#fff" stroke-linecap="round" stroke-linejoin="round" stroke-width="16"/>

  <text x="260" y="100" font-family="Arial, sans-serif" font-size="64" font-weight="bold" fill="#fff">
    BuildTech Supply
  </text>
  <text x="260" y="150" font-family="Arial, sans-serif" font-size="30" fill="#fff">
    Where all your technological, electrical,
  </text>
  <text x="260" y="180" font-family="Arial, sans-serif" font-size="30" fill="#fff">
    and building supplies meet.
  </text>
</svg>
